<?xml version="1.0" encoding="UTF-8"?>
<svg id="Capa_1" data-name="Capa 1" xmlns="http://www.w3.org/2000/svg" viewBox="0 0 512 170.67">
  <path d="M160,105.21h-11.47v-11.73c-1.7,1.91-3.16,4.02-5.07,5.73-15.39,13.85-49.11,10.87-50.17-14.12-.55-12.91,7.57-20.36,19.16-23.79,11.03-3.26,23.36-4.07,34.74-5.67.13-10.18-3.85-16.7-14.31-18.09s-21.53,2.12-24.39,13.28l-12.15-3.71-.07-.36c3.66-12.62,13.63-19.84,26.51-21.24,17.2-1.86,35.38,4.36,36.95,23.85.6,18.58.11,37.23.27,55.83ZM147.2,66.56c-7.66.92-15.43,1.72-23,3.28-8.04,1.67-18.97,4.89-18.06,15.21,1.17,13.17,19.09,13.37,28.16,8.74,10.51-5.36,13.08-16.21,12.89-27.23Z"/>
  <path d="M308.88,105.21h-11.21v-11.73c-.62-.15-.44.12-.61.34-4.19,5.39-8.08,9.07-14.73,11.39-18.54,6.49-41.72-.98-39.89-23.85,1.92-24.03,36.14-22.24,53.22-25.73,1.19-.24.52-3.03.37-4.09-1.17-8.41-5.57-12.85-14-14-10.38-1.41-21.82,2.04-24.38,13.29l-12.26-3.48c2.85-13,13.68-20.47,26.54-21.84,18.2-1.93,35.73,4.81,36.95,25.18v54.5ZM296.08,66.56c-8.02,1.03-16.16,1.78-24.06,3.55-6.65,1.49-15.98,4.25-16.75,12.31-1.51,15.85,19.05,16.61,29.16,10.74,9.64-5.59,12.11-16.07,11.66-26.6Z"/>
  <path d="M464.11,25.34c29.09-1.84,43.37,22.19,39.77,48.79-3,22.19-19.81,35.46-42.25,32.95-43.59-4.89-43.83-78.8,2.48-81.73ZM464.11,37.6c-27.73,2.29-27.49,50.55-4.54,56.61,17.65,4.66,29.91-6.43,31.02-23.76,1.16-18.16-5.53-34.58-26.48-32.84Z"/>
  <path d="M66.09,105.21v-40.92c-.36-11.84-4.67-25.62-18.53-26.52-15.6-1.01-22.72,8.44-23.9,23.05v44.38s-13.06,0-13.06,0V27.39h11.47v9.59c.45.1.54-.14.8-.4,6.47-6.64,12-10.43,21.74-11.07,44.67-2.93,32.95,50.67,34.58,78.77l-.41.92h-12.67Z"/>
  <path d="M181.62,27.39l21.74,61.03,21.88-61.03h12.94l-28.27,77.7c-.52.35-11.18.29-12.43.14-.29-.04-.59.02-.79-.28l-28.14-77.56h13.07Z"/>
  <path d="M367.85,27.39v11.99c-6.96-1.28-13.52-.66-19.07,4.01-5.83,4.9-7.58,12.25-8.16,19.57v42.25s-12.66,0-12.66,0l-.4-.4V27.79l.4-.4h11.07v11.99c1.29-1.16,2.05-2.82,3.21-4.12,6.25-7.03,16.49-9.66,25.61-7.87Z"/>
  <path d="M421.47,27.39v11.99c-6.59-1.25-12.67-.72-18.12,3.35-7.04,5.27-8.58,13.76-9.11,22.09v40.39s-12.8,0-12.8,0V27.39h11.47v11.99l2.53-3.47c6.36-7.46,16.45-10.39,26.02-8.52Z"/>
  <path d="M149.33,144.78c-1.06,7.84-12.9,8.64-16.01,2l2.81-1.3c1.55,2.82,5.76,3.53,8.26,1.57,1.93-1.51,1.79-4.19,1.73-6.39-4.42,3.86-10.84,2.42-13.12-3.02-3.94-9.4,4.1-19.61,13.39-12.71v-1.6s2.94,0,2.94,0v21.45ZM139.66,125.79c-5.53.94-5.79,12.72.05,13.94,3.68.77,6.24-1.54,6.66-5.11.56-4.83-.82-9.84-6.71-8.84Z"/>
  <path d="M129.32,133.72h-14.67c.38,6.62,8.1,8.26,11.37,2.7l2.77,1.19c-1.79,4.96-8.42,6.49-12.89,4.06-7.13-3.87-5.77-17.75,2.64-18.85,7.45-.98,11.14,3.89,10.78,10.9ZM125.85,131.06c.09-7.54-10.79-7.17-10.94,0h10.94Z"/>
  <path d="M40.21,142.25h-2.67s0-2.66,0-2.66c-3.44,4.67-13.62,4.5-13.62-2.53,0-6.52,8.89-6.1,13.36-7.07-.19-5.68-7.74-5.64-9.76-1.1l-2.78-.76c.99-6.4,12.09-7.25,14.78-2.1.12.23.69,1.61.69,1.71v14.52ZM37.01,132.92c-2.29.19-8.02.54-9.34,2.53-1.49,2.24.4,4.47,2.8,4.67,4.27.35,7.1-3.1,6.54-7.2Z"/>
  <path d="M169.34,142.25h-2.67s0-2.66,0-2.66c-3.43,4.69-13.62,4.47-13.62-2.53,0-6.44,8.97-6.16,13.36-7.07.16-5.49-8.29-5.78-9.34-1.06l-3.2-.8c.94-6.19,11.42-7.17,14.52-2.64.19.28.95,1.8.95,1.98v14.79ZM166.41,132.93c-2.54.18-9.35.43-10.03,3.45-1.04,4.6,6.97,4.99,9.11.83.75-1.46.47-2.79.92-4.28Z"/>
  <polygon points="60.48 123.33 53.82 132.52 60.75 142.25 57.02 142.12 51.81 135.33 46.61 142.12 42.88 142.25 49.76 132.75 43.14 123.33 46.88 123.47 51.81 129.99 56.75 123.47 60.48 123.33"/>
  <path d="M87.97,138.92l2.11,1.9-1.45,1.69-1.86-1.6c-4.57,3.65-13.24,2.03-12.02-5.08.24-1.43,1.12-2.98,2.54-3.46-1.48-2.35-2.55-4.62-.64-7.17,2.27-3.05,9.29-2.59,9.99,1.58l-2.01.44c-1.84-3.02-7.46-2.05-6.4,1.97.49,1.87,6.04,5.91,7.61,7.45v-3.73h2.13v6ZM78.83,134.04c-2.08.43-2.26,4.02-.75,5.43,1.17,1.09,3.84,1.18,5.28.71.55-.18,1.85-.91,1.15-1.54-1.16-.71-4.56-4.84-5.68-4.61Z"/>
  <path d="M15.4,118.53v4.4l.4.4h5.47c-.1.88.33,2.03-.4,2.66h-5.47v9.99c0,.16.38,1.98.47,2.2.15.37,1.23,1.4,1.53,1.4h3.87l-.03,2.64c-2.95.79-7.75.37-8.65-3.16-.14-.56-.39-3.06-.39-3.61v-9.46l-3.49-.12-.25-2.55h3.74v-4.8h3.2Z"/>
  <rect x="174.41" y="118.27" width="3.2" height="23.98"/>
  <rect x="103.97" y="118.53" width="3.2" height="23.72"/>
</svg>